<?xml version="1.0" encoding="UTF-8" standalone="no"?>
<!DOCTYPE svg PUBLIC "-//W3C//DTD SVG 1.1//EN" "http://www.w3.org/Graphics/SVG/1.1/DTD/svg11.dtd">
<!-- Created with Vectornator (http://vectornator.io/) -->
<svg height="100%" stroke-miterlimit="10" style="fill-rule:nonzero;clip-rule:evenodd;stroke-linecap:round;stroke-linejoin:round;" version="1.1" viewBox="0 0 1800 1800" width="100%" xml:space="preserve" xmlns="http://www.w3.org/2000/svg" xmlns:vectornator="http://vectornator.io" xmlns:xlink="http://www.w3.org/1999/xlink">
<defs/>
<g id="Основной" vectornator:layerName="Основной">
<path d="M429.769 289.878C456.641 281.785 1095.13 236.992 1108.12 236.9C1121.11 236.807 1127.34 238.668 1142.46 242.2C1157.57 245.732 1156.18 245.394 1168.57 251.027C1180.97 256.659 1432.05 411.066 1432.05 411.066C1432.05 411.066 1450.34 424.684 1464.74 447.176C1479.13 469.667 1481.05 474.506 1489.63 501.033C1498.21 527.559 1499.07 553.281 1499.07 553.281C1499.07 553.281 1490.71 1245.92 1488.66 1254.15C1486.6 1262.37 1485.8 1280.6 1470.96 1303.67C1456.12 1326.74 1452.14 1332.46 1430.09 1346.48C1408.04 1360.49 1382.75 1359.74 1382.75 1359.74C1382.75 1359.74 1370.92 1360.78 1360.92 1361.3C1350.92 1361.83 675.509 1419.34 655.549 1418.25C635.589 1417.16 635.05 1416.14 619.241 1411.15C603.431 1406.17 592.31 1398.31 592.31 1398.31C592.31 1398.31 447.758 1307.01 443.032 1304.94C438.305 1302.88 436.111 1307.01 422.167 1308.62C408.566 1310.19 402.855 1310.19 388.266 1305.52C373.678 1300.86 371.662 1300.36 361.401 1291.49C351.139 1282.61 352.084 1281.98 347.22 1270.01C342.356 1258.04 346.774 1244.52 344.358 1242.1C329.382 1227.04 320.881 1218.58 307.466 1194.94C294.051 1171.31 290.699 1147.55 290.699 1147.55C290.699 1147.55 285.639 1126.87 284.984 1080.89C282.547 909.711 284.421 499.902 288.98 462.765C293.539 425.628 300.893 413.086 315.008 387.924C329.123 362.761 340.419 347.819 369.109 323.307C397.799 298.796 402.898 297.972 429.769 289.878Z" fill="#b5aa7a" fill-rule="nonzero" opacity="1" stroke="#000000" stroke-linecap="butt" stroke-linejoin="miter" stroke-width="9.1" vectornator:layerName="Кривая 1"/>
<path d="M369.635 323.249" fill="#b5aa7a" fill-rule="nonzero" opacity="1" stroke="#000000" stroke-linecap="butt" stroke-linejoin="miter" stroke-width="9.1" vectornator:layerName="Кривая 2"/>
<path d="M328.303 367.437" fill="none" opacity="1" stroke="#000000" stroke-linecap="butt" stroke-linejoin="miter" stroke-width="9.1" vectornator:layerName="Кривая 3"/>
<path d="M1499.07 1292.57C1510.13 1286.66 1514.63 1305.94 1515.94 1324.56C1516.51 1332.67 1516.22 1358.86 1499.07 1372.06C1482.09 1385.13 1465.97 1387.22 1445.75 1388.26C1425.53 1389.3 1403.26 1383.34 1405.91 1373.06C1408.56 1362.79 1439.14 1371.49 1463.03 1347.16C1486.93 1322.83 1488.01 1298.48 1499.07 1292.57Z" fill="#b5aa7a" fill-rule="nonzero" opacity="1" stroke="#000000" stroke-linecap="butt" stroke-linejoin="miter" stroke-width="9.1" vectornator:layerName="Кривая 4"/>
<path d="M1501.89 1276.56" fill="none" opacity="1" stroke="#000000" stroke-linecap="butt" stroke-linejoin="miter" stroke-width="9.1" vectornator:layerName="Кривая 5"/>
</g>
<g id="Тень" vectornator:layerName="Тень">
<path d="M521.34 1380.92C529.915 1373.64 541.765 1400.36 578.548 1414.63C615.332 1428.89 668.479 1436.64 668.475 1437.98C668.368 1475.13 666.385 1534.5 666.385 1534.5C666.385 1534.5 665.721 1547.34 648.437 1554.43C631.154 1561.52 624.636 1563.96 597.251 1562.85C569.866 1561.74 558.045 1560.48 538.897 1549.98C519.75 1539.49 520.058 1520.99 520.058 1520.99C520.058 1520.99 512.766 1388.2 521.34 1380.92Z" fill="#706a48" fill-rule="nonzero" opacity="1" stroke="#000000" stroke-linecap="butt" stroke-linejoin="miter" stroke-width="8.1" vectornator:layerName="Кривая 1"/>
<path d="M1116.46 1406.88C1116.7 1402.49 1273.55 1399.67 1273.67 1402.89C1274.58 1426.83 1274.22 1426.15 1273.61 1443.7C1273.41 1449.32 1272.62 1454.27 1270.77 1463.67C1266.36 1486.06 1258.18 1492.03 1258.18 1492.03C1258.18 1492.03 1247.99 1501.73 1233.68 1505.78C1219.37 1509.83 1217.72 1510.82 1203.32 1511.37C1194.04 1511.73 1181.02 1510.21 1181.02 1510.21C1181.02 1510.21 1176.36 1509.44 1170.85 1508.29C1154.7 1504.92 1146.41 1503.19 1132.87 1493.99C1123.84 1487.85 1116.67 1469.18 1115.57 1457.73C1114.45 1446.01 1114.23 1448.83 1116.46 1406.88Z" fill="#706a48" fill-rule="nonzero" opacity="1" stroke="#000000" stroke-linecap="butt" stroke-linejoin="miter" stroke-width="8.1" vectornator:layerName="Кривая 2"/>
<path d="M1467.28 1350.75C1469.13 1348.93 1471.33 1346.36 1471.33 1346.36C1471.33 1346.36 1484.05 1345.25 1489.9 1346.23C1501.83 1348.21 1506.46 1352.56 1506.46 1352.56C1506.46 1352.56 1503.1 1366.67 1486.05 1375.35C1469 1384.04 1459.17 1382.52 1440.44 1382.97C1419.77 1383.47 1411.19 1376.46 1411.48 1374.66C1411.76 1372.9 1442.29 1365.07 1442.29 1365.07C1442.29 1365.07 1463.91 1354.08 1467.28 1350.75Z" fill="#706a48" fill-rule="nonzero" opacity="1" stroke="#000000" stroke-linecap="butt" stroke-linejoin="miter" stroke-width="0.1" vectornator:layerName="Кривая 3"/>
<path d="M335.173 367.437C335.173 367.437 510.553 474.109 566.419 528.414C576.193 537.915 576.49 537.945 585.632 552.887C594.774 567.828 597.385 570.862 602.986 588.181C608.587 605.5 608.038 622.163 608.038 622.163C608.038 622.163 581.275 1211.46 585.631 1276.56C585.78 1278.79 587.753 1300.94 588.141 1302.99C593.645 1332.13 610.733 1357.43 610.733 1357.43C610.733 1357.43 621.941 1380.68 668.475 1388.38C730.35 1398.61 1447.5 1326.31 1447.5 1326.31C1447.5 1326.31 1439.02 1338.06 1424.41 1345.82C1409.79 1353.59 1385.72 1354.63 1385.72 1354.63C1385.72 1354.63 755.587 1408.18 649.431 1412.74C634.008 1413.4 610.462 1402.67 610.462 1402.67L517.166 1345.82C517.166 1345.82 495.339 1333.84 475.678 1318.28C469.936 1313.73 454.412 1306.31 448.247 1301.4C446.674 1300.15 444.13 1299.25 442.411 1298.76C439.41 1297.92 430.678 1301.18 430.678 1301.18C430.678 1301.18 429.629 1301.67 421.621 1303.13C413.613 1304.59 407.484 1304.04 407.484 1304.04C407.484 1304.04 390.643 1304.68 378.417 1297.4C366.191 1290.12 359.11 1282.63 359.11 1282.63C359.11 1282.63 352.753 1271.21 350.53 1262.28C348.891 1255.7 350.476 1246.13 350.476 1246.13L350.675 1243.51L350.344 1241.83L350.032 1241.54L349.689 1240.05L324.051 1212.26C324.051 1212.26 309.468 1191.34 301.64 1167.31C293.812 1143.29 290.941 1108.8 290.941 1108.8C290.941 1108.8 288.909 1146.17 289.887 983.72C290.372 903.188 290.327 663.282 290.327 663.282C290.327 663.282 290.872 569.573 292.211 509.091C292.85 480.273 294.852 458.999 294.852 458.999C294.852 458.999 296.951 448.673 298.366 441.713C299.78 434.753 300.511 431.159 300.511 431.159C300.511 431.159 305.859 417.469 308.838 410.609C318.753 387.776 335.173 367.437 335.173 367.437Z" fill="#706a48" fill-rule="nonzero" opacity="1" stroke="none" vectornator:layerName="Кривая 4"/>
<path d="M464.716 880.795C469.726 869.289 452.697 904.721 446.399 927.531C440.101 950.34 439.524 972.034 439.524 972.034C439.524 972.034 456.723 1246.23 453.402 1267.04C451.16 1281.08 452.964 1293.56 440.465 1301.95C426.401 1311.38 409.119 1310.13 409.119 1310.13" fill="none" opacity="1" stroke="#000000" stroke-linecap="butt" stroke-linejoin="miter" stroke-width="8.1" vectornator:layerName="Кривая 5"/>
</g>
<g id="Слой-2" vectornator:layerName="Слой 2">
<path d="M719.762 1053.86C719.762 1009.47 755.742 973.494 800.127 973.494C844.511 973.494 880.492 1009.47 880.492 1053.86C880.492 1098.24 844.511 1134.22 800.127 1134.22C755.742 1134.22 719.762 1098.24 719.762 1053.86Z" fill="#000000" fill-rule="nonzero" opacity="1" stroke="#000000" stroke-linecap="butt" stroke-linejoin="miter" stroke-width="0.1" vectornator:layerName="Овал 1"/>
<path d="M966.575 1219.22C966.427 1174.83 1070.36 1092.16 1114.75 1092.02C1159.13 1091.87 1240.71 1151.58 1240.86 1195.96C1241.01 1240.34 1159.13 1243.61 1114.75 1243.75C1070.36 1243.9 966.723 1263.6 966.575 1219.22Z" fill="#000000" fill-rule="nonzero" opacity="1" stroke="#000000" stroke-linecap="butt" stroke-linejoin="miter" stroke-width="0.1" vectornator:layerName="Овал 3"/>
<path d="M1286.77 1013.27C1286.77 968.887 1322.76 932.906 1367.14 932.906C1411.52 932.906 1447.5 968.887 1447.5 1013.27C1447.5 1057.66 1411.52 1093.64 1367.14 1093.64C1322.76 1093.64 1286.77 1057.66 1286.77 1013.27Z" fill="#000000" fill-rule="nonzero" opacity="1" stroke="#000000" stroke-linecap="butt" stroke-linejoin="miter" stroke-width="0.1" vectornator:layerName="Овал 2"/>
<path d="M336.373 846.707C331.414 838.748 347.021 862.154 351.129 881.192C355.237 900.229 354.425 922.856 354.425 922.856L345.303 1248.24" fill="none" opacity="1" stroke="#000000" stroke-linecap="butt" stroke-linejoin="miter" stroke-width="8.1" vectornator:layerName="Кривая 1"/>
</g>
</svg>
